<svg xmlns="http://www.w3.org/2000/svg" viewBox="0 0 512 512" role="img" aria-label="RedLeads flame">
  <defs>
    <linearGradient id="tile" x1="0" x2="1" y1="0" y2="1"><stop stop-color="#102754"/><stop offset="1" stop-color="#07132f"/></linearGradient>
    <linearGradient id="left" x1="0" x2="1" y1="0" y2="1"><stop stop-color="#8be8ff"/><stop offset=".55" stop-color="#398df9"/><stop offset="1" stop-color="#5944df"/></linearGradient>
    <linearGradient id="right" x1="0" x2="1" y1="0" y2="1"><stop stop-color="#e1adff"/><stop offset=".55" stop-color="#9765f5"/><stop offset="1" stop-color="#4b42bb"/></linearGradient>
    <linearGradient id="core" x1="0" x2=".9" y1="0" y2="1"><stop stop-color="#8df5ff"/><stop offset=".5" stop-color="#29aeff"/><stop offset="1" stop-color="#2360ef"/></linearGradient>
    <radialGradient id="glow"><stop stop-color="#23b8ff" stop-opacity=".4"/><stop offset="1" stop-color="#23b8ff" stop-opacity="0"/></radialGradient>
  </defs>
  <rect x="8" y="8" width="496" height="496" rx="112" fill="url(#tile)" stroke="#6085d2" stroke-opacity=".45" stroke-width="4"/>
  <circle cx="256" cy="305" r="178" fill="url(#glow)"/>
  <path d="M247 90c72 49 91 109 62 161 34-7 63-35 74-73 44 98 56 165 17 220-34 48-91 72-151 66-73-8-129-59-129-131 0-66 45-122 90-177-2 48 8 76 27 91 35-45 48-100 10-157Z" fill="url(#right)" stroke="#e6c6ff" stroke-opacity=".65" stroke-width="5"/>
  <path d="M188 216c-5 48-33 71-33 118 0 57 43 100 103 105 61 5 112-37 113-95 1-43-15-73-40-105-3 40-18 62-43 73 17-61-2-104-49-145 3 59-30 74-51 49Z" fill="url(#left)" stroke="#a9e9ff" stroke-opacity=".7" stroke-width="5"/>
  <path d="M260 255c20 30 28 49 19 73 23-7 37-27 37-48 22 33 32 57 32 82 0 49-37 83-88 83-52 0-90-35-90-81 0-37 24-70 55-100-3 35 3 56 18 67 18-22 26-45 17-76Z" fill="url(#core)" stroke="#aaf5ff" stroke-opacity=".85" stroke-width="6"/>
  <path d="M189 372c14 36 43 53 72 54" fill="none" stroke="#b1f7ff" stroke-opacity=".5" stroke-width="8" stroke-linecap="round"/>
</svg>
